{"title":"[MARATHI] Kale Bet Laal Batti - Drama x264 MP3 [TMB]","uid":8599446,"size":516452846,"categoryP":"video","categoryS":"movies","magnet":"?xt=urn:btih:8fe578d55986b02d4df669ab08746f74ca17d7ec&amp;dn=%5BMARATHI%5D+Kale+Bet+Laal+Batti+-+Drama+x264+MP3+%5BTMB%5D&amp;tr=udp%3A%2F%2Ftracker.openbittorrent.com%3A80&amp;tr=udp%3A%2F%2Fopen.demonii.com%3A1337&amp;tr=udp%3A%2F%2Ftracker.coppersurfer.tk%3A6969&amp;tr=udp%3A%2F%2Fexodus.desync.com%3A6969","seeders":1,"leechers":0,"uploader":"SJonam","files":1,"time":1371846562,"description":" &lt;a href=&quot;http://i1306.photobucket.com/albums/s570/zyx55e/44_zpsc46e809d.gif&quot; rel=&quot;nofollow&quot; target=&quot;_NEW&quot;&gt;http://i1306.photobucket.com/albums/s570/zyx55e/44_zpsc46e809d.gif&lt;/a&gt; &lt;a href=&quot;\nhttp://desibbrg.org/images/73128972665462071960.png&quot; rel=&quot;nofollow&quot; target=&quot;_NEW&quot;&gt;\nhttp://desibbrg.org/images/73128972665462071960.png&lt;/a&gt; &lt;a href=&quot;\nhttp://desibbrg.org/images/66724795375242374277.png&quot; rel=&quot;nofollow&quot; target=&quot;_NEW&quot;&gt;\nhttp://desibbrg.org/images/66724795375242374277.png&lt;/a&gt; &lt;a href=&quot;\nhttp://desibbrg.org/images/32414009811281436094.png&quot; rel=&quot;nofollow&quot; target=&quot;_NEW&quot;&gt;\nhttp://desibbrg.org/images/32414009811281436094.png&lt;/a&gt; &lt;a href=&quot;\nhttp://desibbrg.org/images/26446174022125771117.png&quot; rel=&quot;nofollow&quot; target=&quot;_NEW&quot;&gt;\nhttp://desibbrg.org/images/26446174022125771117.png&lt;/a&gt; &lt;a href=&quot;\nhttp://desibbrg.org/images/47868383469256692441.png&quot; rel=&quot;nofollow&quot; target=&quot;_NEW&quot;&gt;\nhttp://desibbrg.org/images/47868383469256692441.png&lt;/a&gt;\n &lt;a href=&quot;\nhttp://i1306.photobucket.com/albums/s570/zyx55e/oie_11162011MOJeDGQI_zpsc25b2b81.gif&quot; rel=&quot;nofollow&quot; target=&quot;_NEW&quot;&gt;\nhttp://i1306.photobucket.com/albums/s570/zyx55e/oie_11162011MOJeDGQI_zpsc25b2b81.gif&lt;/a&gt;\n\nCast n Crew - \nDirected by Nitin Vaidya \nVideo Director by Prakash Bhalekar.\n\nArtist :- Mohan Joshi, Surekha Kudchi, Pradeep Patwardhan, Sanjay Sugavkar, Baban Joshi and Sunil Jadhav.\n\nWriter :- Prof. Madhukar Toradmal\n\nMedia Info - \nGeneral\nComplete name                  : Kale Bet Laal Batti - Drama x264 MP3 [TMB].avi\nFormat                         : AVI\nFormat/Info                    : Audio Video Interleave\nFile size                      : 493 MiB\nDuration                       : 1h 28mn\nOverall bit rate               : 775 Kbps\nWriting application            : Lavf54.63.104\n\nVideo\nFormat                         : AVC\nFormat/Info                    : Advanced Video Codec\nFormat profile                 : &lt;a class=&quot;__cf_email__&quot; href=&quot;/cdn-cgi/l/email-protection&quot; data-cfemail=&quot;571f3e303f171b647967&quot;&gt;[email&amp;#160;protected]&lt;/a&gt;&lt;script cf-hash='f9e31' type=&quot;text/javascript&quot;&gt;\n/* &lt;![CDATA[ */!function(){try{var t=&quot;currentScript&quot;in document?document.currentScript:function(){for(var t=document.getElementsByTagName(&quot;script&quot;),e=t.length;e--;)if(t[e].getAttribute(&quot;cf-hash&quot;))return t[e]}();if(t&amp;&amp;t.previousSibling){var e,r,n,i,c=t.previousSibling,a=c.getAttribute(&quot;data-cfemail&quot;);if(a){for(e=&quot;&quot;,r=parseInt(a.substr(0,2),16),n=2;a.length-n;n+=2)i=parseInt(a.substr(n,2),16)^r,e+=String.fromCharCode(i);e=document.createTextNode(e),c.parentNode.replaceChild(e,c)}}}catch(u){}}();/* ]]&gt; */&lt;/script&gt;\nFormat settings, CABAC         : Yes\nFormat settings, ReFrames      : 1 frame\nCodec ID                       : H264\nDuration                       : 1h 28mn\nBit rate                       : 508 Kbps\nWidth                          : 640 pixels\nHeight                         : 480 pixels\nDisplay aspect ratio           : 4:3\nFrame rate mode                : Variable\nFrame rate                     : 25.000 fps\nColor space                    : YUV\nChroma subsampling             : 4:2:0\nBit depth                      : 8 bits\nScan type                      : Progressive\nBits/(Pixel*Frame)             : 0.066\nStream size                    : 322 MiB (65%)\nWriting library                : x264 core 129\n\nAudio\nFormat                         : MPEG Audio\nFormat version                 : Version 1\nFormat profile                 : Layer 3\nMode                           : Joint stereo\nMode extension                 : MS Stereo\nCodec ID                       : 55\nCodec ID/Hint                  : MP3\nDuration                       : 1h 28mn\nBit rate mode                  : Constant\nBit rate                       : 256 Kbps\nChannel(s)                     : 2 channels\nSampling rate                  : 44.1 KHz\nCompression mode               : Lossy\nStream size                    : 163 MiB (33%)\nAlignment                      : Aligned on interleaves\nInterleave, duration           : 26 ms (0.65 video frame)\nWriting library                : LAME3.99.5\n\nRipper : Manojvb\n\nSeeding 24x7... Extreme Seeding...\n\n\nEnjoy!\n","torrent":{"xt":"urn:btih:8fe578d55986b02d4df669ab08746f74ca17d7ec","amp;dn":"%5BMARATHI%5D+Kale+Bet+Laal+Batti+-+Drama+x264+MP3+%5BTMB%5D","amp;tr":["udp%3A%2F%2Ftracker.openbittorrent.com%3A80","udp%3A%2F%2Fopen.demonii.com%3A1337","udp%3A%2F%2Ftracker.coppersurfer.tk%3A6969","udp%3A%2F%2Fexodus.desync.com%3A6969"],"infoHash":"8fe578d55986b02d4df669ab08746f74ca17d7ec","infoHashBuffer":{"type":"Buffer","data":[143,229,120,213,89,134,176,45,77,246,105,171,8,116,111,116,202,23,215,236]},"announce":[],"urlList":[]}}